<svg xmlns="http://www.w3.org/2000/svg" width="900" height="191" viewBox="0 0 900 191" role="img" aria-label="guitaripod terminal session: engineer who ships. 9 apps on the App Store. midgarcorp.cc">
  <defs><filter id="glow" x="-50%" y="-50%" width="200%" height="200%"><feGaussianBlur stdDeviation="2.5" result="b"/><feMerge><feMergeNode in="b"/><feMergeNode in="SourceGraphic"/></feMerge></filter></defs>
  <style>text{font-family:ui-monospace,SFMono-Regular,Menlo,Consolas,monospace;font-size:16px}.cursor{animation:blink 1.1s steps(2,jump-none) infinite}@keyframes blink{50%{opacity:0}}.rc0{animation:fall 6.20s linear -10.15s infinite}
.rc1{animation:fall 10.04s linear -13.63s infinite}
.rc2{animation:fall 11.59s linear -9.24s infinite}
.rc3{animation:fall 9.68s linear -12.25s infinite}
.rc4{animation:fall 7.82s linear -9.95s infinite}
.rc5{animation:fall 8.14s linear -0.89s infinite}
.rc6{animation:fall 11.48s linear -2.20s infinite}
.rc7{animation:fall 11.24s linear -8.46s infinite}
.rc8{animation:fall 8.90s linear -0.04s infinite}
.rc9{animation:fall 9.08s linear -5.66s infinite}
.rc10{animation:fall 8.72s linear -9.89s infinite}
.rc11{animation:fall 11.11s linear -5.47s infinite}
.rc12{animation:fall 12.65s linear -9.69s infinite}
.rc13{animation:fall 9.80s linear -6.30s infinite}
.rc14{animation:fall 11.20s linear -7.87s infinite}
.rc15{animation:fall 11.05s linear -10.79s infinite}
@keyframes fall{from{transform:translateY(-308px)}to{transform:translateY(191px)}}.tw0{animation:t0 5.5875s infinite}@keyframes t0{0%{width:0}14.318%{width:0;animation-timing-function:steps(6)}17.673%{width:57.6px}100%{width:57.6px}}.pr0{opacity:0;animation:o0 5.5875s infinite}@keyframes o0{0%{opacity:0}14.218%{opacity:0}14.318%{opacity:1}100%{opacity:1}}.ol1{opacity:0;animation:o1 5.5875s infinite}@keyframes o1{0%{opacity:0}21.511%{opacity:0}21.611%{opacity:1}100%{opacity:1}}.pr2{opacity:0;animation:o2 5.5875s infinite}@keyframes o2{0%{opacity:0}28.311999999999998%{opacity:0}28.412%{opacity:1}100%{opacity:1}}.cpos{animation:cmove 5.5875s step-end infinite}@keyframes cmove{0%{transform:translate(0,0);opacity:0}14.318%{transform:translate(59.2px,62px);opacity:1;animation-timing-function:steps(6);}17.673%{transform:translate(116.8px,62px);opacity:1}28.412%{transform:translate(59.2px,116px);opacity:1;}100%{transform:translate(59.2px,116px);opacity:1}}@media (prefers-reduced-motion:reduce){*{animation:none !important}.ol,.pr,.cpos{opacity:1 !important}}</style>
  <rect width="900" height="191" fill="#0d1117"/>
  <rect x="8" y="8" width="884" height="175" fill="#161b22" stroke="#2d333b" stroke-width="2"/>
  <rect x="8" y="8" width="884" height="36" fill="#1c2128" stroke="#2d333b" stroke-width="2"/>
  <circle cx="30" cy="26" r="6" fill="#ff7b72"/>
  <circle cx="52" cy="26" r="6" fill="#ffb000"/>
  <circle cx="74" cy="26" r="6" fill="#33ff66"/>
  <text x="450.0" y="31" text-anchor="middle" font-size="14" fill="#9198a1">guitaripod@midgar: ~</text>
  <clipPath id="rainclip"><rect x="10" y="46" width="880" height="135"/></clipPath><g clip-path="url(#rainclip)" opacity="0.13"><g transform="translate(33,0)"><g class="rc rc0"><text x="0" y="0" font-size="14" fill="#33ff66">ク</text><text x="0" y="22" font-size="14" fill="#33ff66">オ</text><text x="0" y="44" font-size="14" fill="#33ff66">8</text><text x="0" y="66" font-size="14" fill="#33ff66">ェ</text><text x="0" y="88" font-size="14" fill="#33ff66">6</text><text x="0" y="110" font-size="14" fill="#33ff66">8</text><text x="0" y="132" font-size="14" fill="#33ff66">+</text><text x="0" y="154" font-size="14" fill="#33ff66">2</text><text x="0" y="176" font-size="14" fill="#33ff66">ウ</text><text x="0" y="198" font-size="14" fill="#33ff66">3</text><text x="0" y="220" font-size="14" fill="#33ff66">セ</text><text x="0" y="242" font-size="14" fill="#33ff66">ィ</text><text x="0" y="264" font-size="14" fill="#33ff66">ア</text><text x="0" y="286" font-size="14" fill="#33ff66">ウ</text></g></g><g transform="translate(80,0)"><g class="rc rc1"><text x="0" y="0" font-size="14" fill="#33ff66">キ</text><text x="0" y="22" font-size="14" fill="#33ff66">7</text><text x="0" y="44" font-size="14" fill="#33ff66">5</text><text x="0" y="66" font-size="14" fill="#33ff66">7</text><text x="0" y="88" font-size="14" fill="#33ff66">2</text><text x="0" y="110" font-size="14" fill="#33ff66">セ</text><text x="0" y="132" font-size="14" fill="#33ff66">ク</text><text x="0" y="154" font-size="14" fill="#33ff66">ソ</text><text x="0" y="176" font-size="14" fill="#33ff66">3</text><text x="0" y="198" font-size="14" fill="#33ff66">ケ</text><text x="0" y="220" font-size="14" fill="#33ff66">$</text><text x="0" y="242" font-size="14" fill="#33ff66">*</text><text x="0" y="264" font-size="14" fill="#33ff66">ア</text><text x="0" y="286" font-size="14" fill="#33ff66">9</text></g></g><g transform="translate(148,0)"><g class="rc rc2"><text x="0" y="0" font-size="14" fill="#33ff66">オ</text><text x="0" y="22" font-size="14" fill="#33ff66">キ</text><text x="0" y="44" font-size="14" fill="#33ff66">9</text><text x="0" y="66" font-size="14" fill="#33ff66">サ</text><text x="0" y="88" font-size="14" fill="#33ff66">ェ</text><text x="0" y="110" font-size="14" fill="#33ff66">ウ</text><text x="0" y="132" font-size="14" fill="#33ff66">ス</text><text x="0" y="154" font-size="14" fill="#33ff66">ェ</text><text x="0" y="176" font-size="14" fill="#33ff66">シ</text><text x="0" y="198" font-size="14" fill="#33ff66">*</text><text x="0" y="220" font-size="14" fill="#33ff66">シ</text><text x="0" y="242" font-size="14" fill="#33ff66">4</text><text x="0" y="264" font-size="14" fill="#33ff66">ケ</text><text x="0" y="286" font-size="14" fill="#33ff66">$</text></g></g><g transform="translate(189,0)"><g class="rc rc3"><text x="0" y="0" font-size="14" fill="#33ff66">ス</text><text x="0" y="22" font-size="14" fill="#33ff66">ウ</text><text x="0" y="44" font-size="14" fill="#33ff66">2</text><text x="0" y="66" font-size="14" fill="#33ff66">コ</text><text x="0" y="88" font-size="14" fill="#33ff66">#</text><text x="0" y="110" font-size="14" fill="#33ff66">5</text><text x="0" y="132" font-size="14" fill="#33ff66">4</text><text x="0" y="154" font-size="14" fill="#33ff66">+</text><text x="0" y="176" font-size="14" fill="#33ff66">*</text><text x="0" y="198" font-size="14" fill="#33ff66">シ</text><text x="0" y="220" font-size="14" fill="#33ff66">3</text><text x="0" y="242" font-size="14" fill="#33ff66">キ</text><text x="0" y="264" font-size="14" fill="#33ff66">7</text><text x="0" y="286" font-size="14" fill="#33ff66">ウ</text></g></g><g transform="translate(245,0)"><g class="rc rc4"><text x="0" y="0" font-size="14" fill="#33ff66">ウ</text><text x="0" y="22" font-size="14" fill="#33ff66">*</text><text x="0" y="44" font-size="14" fill="#33ff66">ク</text><text x="0" y="66" font-size="14" fill="#33ff66">*</text><text x="0" y="88" font-size="14" fill="#33ff66">ェ</text><text x="0" y="110" font-size="14" fill="#33ff66">ス</text><text x="0" y="132" font-size="14" fill="#33ff66">ケ</text><text x="0" y="154" font-size="14" fill="#33ff66">ソ</text><text x="0" y="176" font-size="14" fill="#33ff66">5</text><text x="0" y="198" font-size="14" fill="#33ff66">#</text><text x="0" y="220" font-size="14" fill="#33ff66">シ</text><text x="0" y="242" font-size="14" fill="#33ff66">カ</text><text x="0" y="264" font-size="14" fill="#33ff66">シ</text><text x="0" y="286" font-size="14" fill="#33ff66">シ</text></g></g><g transform="translate(304,0)"><g class="rc rc5"><text x="0" y="0" font-size="14" fill="#33ff66">5</text><text x="0" y="22" font-size="14" fill="#33ff66">ウ</text><text x="0" y="44" font-size="14" fill="#33ff66">4</text><text x="0" y="66" font-size="14" fill="#33ff66">5</text><text x="0" y="88" font-size="14" fill="#33ff66">カ</text><text x="0" y="110" font-size="14" fill="#33ff66">2</text><text x="0" y="132" font-size="14" fill="#33ff66">8</text><text x="0" y="154" font-size="14" fill="#33ff66">ク</text><text x="0" y="176" font-size="14" fill="#33ff66">カ</text><text x="0" y="198" font-size="14" fill="#33ff66">ソ</text><text x="0" y="220" font-size="14" fill="#33ff66">ス</text><text x="0" y="242" font-size="14" fill="#33ff66">ケ</text><text x="0" y="264" font-size="14" fill="#33ff66">5</text><text x="0" y="286" font-size="14" fill="#33ff66">7</text></g></g><g transform="translate(367,0)"><g class="rc rc6"><text x="0" y="0" font-size="14" fill="#33ff66">9</text><text x="0" y="22" font-size="14" fill="#33ff66">ィ</text><text x="0" y="44" font-size="14" fill="#33ff66">ク</text><text x="0" y="66" font-size="14" fill="#33ff66">#</text><text x="0" y="88" font-size="14" fill="#33ff66">ィ</text><text x="0" y="110" font-size="14" fill="#33ff66">$</text><text x="0" y="132" font-size="14" fill="#33ff66">サ</text><text x="0" y="154" font-size="14" fill="#33ff66">ス</text><text x="0" y="176" font-size="14" fill="#33ff66">ケ</text><text x="0" y="198" font-size="14" fill="#33ff66">ウ</text><text x="0" y="220" font-size="14" fill="#33ff66">キ</text><text x="0" y="242" font-size="14" fill="#33ff66">3</text><text x="0" y="264" font-size="14" fill="#33ff66">+</text><text x="0" y="286" font-size="14" fill="#33ff66">7</text></g></g><g transform="translate(418,0)"><g class="rc rc7"><text x="0" y="0" font-size="14" fill="#33ff66">5</text><text x="0" y="22" font-size="14" fill="#33ff66">ソ</text><text x="0" y="44" font-size="14" fill="#33ff66">オ</text><text x="0" y="66" font-size="14" fill="#33ff66">ケ</text><text x="0" y="88" font-size="14" fill="#33ff66">オ</text><text x="0" y="110" font-size="14" fill="#33ff66">ク</text><text x="0" y="132" font-size="14" fill="#33ff66">8</text><text x="0" y="154" font-size="14" fill="#33ff66">2</text><text x="0" y="176" font-size="14" fill="#33ff66">2</text><text x="0" y="198" font-size="14" fill="#33ff66">ケ</text><text x="0" y="220" font-size="14" fill="#33ff66">8</text><text x="0" y="242" font-size="14" fill="#33ff66">3</text><text x="0" y="264" font-size="14" fill="#33ff66">セ</text><text x="0" y="286" font-size="14" fill="#33ff66">+</text></g></g><g transform="translate(480,0)"><g class="rc rc8"><text x="0" y="0" font-size="14" fill="#33ff66">オ</text><text x="0" y="22" font-size="14" fill="#33ff66">1</text><text x="0" y="44" font-size="14" fill="#33ff66">0</text><text x="0" y="66" font-size="14" fill="#33ff66">ウ</text><text x="0" y="88" font-size="14" fill="#33ff66">9</text><text x="0" y="110" font-size="14" fill="#33ff66">ィ</text><text x="0" y="132" font-size="14" fill="#33ff66">*</text><text x="0" y="154" font-size="14" fill="#33ff66">ェ</text><text x="0" y="176" font-size="14" fill="#33ff66">オ</text><text x="0" y="198" font-size="14" fill="#33ff66">5</text><text x="0" y="220" font-size="14" fill="#33ff66">カ</text><text x="0" y="242" font-size="14" fill="#33ff66">$</text><text x="0" y="264" font-size="14" fill="#33ff66">6</text><text x="0" y="286" font-size="14" fill="#33ff66">セ</text></g></g><g transform="translate(536,0)"><g class="rc rc9"><text x="0" y="0" font-size="14" fill="#33ff66">ソ</text><text x="0" y="22" font-size="14" fill="#33ff66">1</text><text x="0" y="44" font-size="14" fill="#33ff66">ケ</text><text x="0" y="66" font-size="14" fill="#33ff66">2</text><text x="0" y="88" font-size="14" fill="#33ff66">*</text><text x="0" y="110" font-size="14" fill="#33ff66">ア</text><text x="0" y="132" font-size="14" fill="#33ff66">6</text><text x="0" y="154" font-size="14" fill="#33ff66">8</text><text x="0" y="176" font-size="14" fill="#33ff66">ェ</text><text x="0" y="198" font-size="14" fill="#33ff66">6</text><text x="0" y="220" font-size="14" fill="#33ff66">+</text><text x="0" y="242" font-size="14" fill="#33ff66">2</text><text x="0" y="264" font-size="14" fill="#33ff66">9</text><text x="0" y="286" font-size="14" fill="#33ff66">ケ</text></g></g><g transform="translate(595,0)"><g class="rc rc10"><text x="0" y="0" font-size="14" fill="#33ff66">カ</text><text x="0" y="22" font-size="14" fill="#33ff66">ソ</text><text x="0" y="44" font-size="14" fill="#33ff66">ア</text><text x="0" y="66" font-size="14" fill="#33ff66">8</text><text x="0" y="88" font-size="14" fill="#33ff66">+</text><text x="0" y="110" font-size="14" fill="#33ff66">8</text><text x="0" y="132" font-size="14" fill="#33ff66">ケ</text><text x="0" y="154" font-size="14" fill="#33ff66">1</text><text x="0" y="176" font-size="14" fill="#33ff66">9</text><text x="0" y="198" font-size="14" fill="#33ff66">カ</text><text x="0" y="220" font-size="14" fill="#33ff66">1</text><text x="0" y="242" font-size="14" fill="#33ff66">ェ</text><text x="0" y="264" font-size="14" fill="#33ff66">*</text><text x="0" y="286" font-size="14" fill="#33ff66">5</text></g></g><g transform="translate(642,0)"><g class="rc rc11"><text x="0" y="0" font-size="14" fill="#33ff66">オ</text><text x="0" y="22" font-size="14" fill="#33ff66">シ</text><text x="0" y="44" font-size="14" fill="#33ff66">9</text><text x="0" y="66" font-size="14" fill="#33ff66">カ</text><text x="0" y="88" font-size="14" fill="#33ff66">2</text><text x="0" y="110" font-size="14" fill="#33ff66">9</text><text x="0" y="132" font-size="14" fill="#33ff66">1</text><text x="0" y="154" font-size="14" fill="#33ff66">ア</text><text x="0" y="176" font-size="14" fill="#33ff66">4</text><text x="0" y="198" font-size="14" fill="#33ff66">サ</text><text x="0" y="220" font-size="14" fill="#33ff66">0</text><text x="0" y="242" font-size="14" fill="#33ff66">ア</text><text x="0" y="264" font-size="14" fill="#33ff66">ェ</text><text x="0" y="286" font-size="14" fill="#33ff66">シ</text></g></g><g transform="translate(710,0)"><g class="rc rc12"><text x="0" y="0" font-size="14" fill="#33ff66">ィ</text><text x="0" y="22" font-size="14" fill="#33ff66">ク</text><text x="0" y="44" font-size="14" fill="#33ff66">+</text><text x="0" y="66" font-size="14" fill="#33ff66">3</text><text x="0" y="88" font-size="14" fill="#33ff66">ウ</text><text x="0" y="110" font-size="14" fill="#33ff66">ウ</text><text x="0" y="132" font-size="14" fill="#33ff66">8</text><text x="0" y="154" font-size="14" fill="#33ff66">0</text><text x="0" y="176" font-size="14" fill="#33ff66">#</text><text x="0" y="198" font-size="14" fill="#33ff66">ウ</text><text x="0" y="220" font-size="14" fill="#33ff66">9</text><text x="0" y="242" font-size="14" fill="#33ff66">2</text><text x="0" y="264" font-size="14" fill="#33ff66">9</text><text x="0" y="286" font-size="14" fill="#33ff66">オ</text></g></g><g transform="translate(751,0)"><g class="rc rc13"><text x="0" y="0" font-size="14" fill="#33ff66">ケ</text><text x="0" y="22" font-size="14" fill="#33ff66">1</text><text x="0" y="44" font-size="14" fill="#33ff66">*</text><text x="0" y="66" font-size="14" fill="#33ff66">4</text><text x="0" y="88" font-size="14" fill="#33ff66">セ</text><text x="0" y="110" font-size="14" fill="#33ff66">キ</text><text x="0" y="132" font-size="14" fill="#33ff66">2</text><text x="0" y="154" font-size="14" fill="#33ff66">9</text><text x="0" y="176" font-size="14" fill="#33ff66">8</text><text x="0" y="198" font-size="14" fill="#33ff66">7</text><text x="0" y="220" font-size="14" fill="#33ff66">キ</text><text x="0" y="242" font-size="14" fill="#33ff66">7</text><text x="0" y="264" font-size="14" fill="#33ff66">コ</text><text x="0" y="286" font-size="14" fill="#33ff66">ス</text></g></g><g transform="translate(824,0)"><g class="rc rc14"><text x="0" y="0" font-size="14" fill="#33ff66">1</text><text x="0" y="22" font-size="14" fill="#33ff66">ソ</text><text x="0" y="44" font-size="14" fill="#33ff66">ェ</text><text x="0" y="66" font-size="14" fill="#33ff66">ク</text><text x="0" y="88" font-size="14" fill="#33ff66">ク</text><text x="0" y="110" font-size="14" fill="#33ff66">ウ</text><text x="0" y="132" font-size="14" fill="#33ff66">サ</text><text x="0" y="154" font-size="14" fill="#33ff66">ア</text><text x="0" y="176" font-size="14" fill="#33ff66">3</text><text x="0" y="198" font-size="14" fill="#33ff66">2</text><text x="0" y="220" font-size="14" fill="#33ff66">ク</text><text x="0" y="242" font-size="14" fill="#33ff66">3</text><text x="0" y="264" font-size="14" fill="#33ff66">ク</text><text x="0" y="286" font-size="14" fill="#33ff66">ア</text></g></g><g transform="translate(861,0)"><g class="rc rc15"><text x="0" y="0" font-size="14" fill="#33ff66">+</text><text x="0" y="22" font-size="14" fill="#33ff66">ィ</text><text x="0" y="44" font-size="14" fill="#33ff66">*</text><text x="0" y="66" font-size="14" fill="#33ff66">サ</text><text x="0" y="88" font-size="14" fill="#33ff66">ウ</text><text x="0" y="110" font-size="14" fill="#33ff66">1</text><text x="0" y="132" font-size="14" fill="#33ff66">ク</text><text x="0" y="154" font-size="14" fill="#33ff66">ケ</text><text x="0" y="176" font-size="14" fill="#33ff66">6</text><text x="0" y="198" font-size="14" fill="#33ff66">0</text><text x="0" y="220" font-size="14" fill="#33ff66">キ</text><text x="0" y="242" font-size="14" fill="#33ff66">2</text><text x="0" y="264" font-size="14" fill="#33ff66">オ</text><text x="0" y="286" font-size="14" fill="#33ff66">8</text></g></g></g>
  <text x="40" y="76" fill="#33ff66" class="pr pr0">$</text><g clip-path="url(#tc0)"><text x="59.2" y="76" fill="#e6edf3" textLength="57.6" lengthAdjust="spacing">whoami</text></g><clipPath id="tc0"><rect class="tw0" x="59.2" y="58" width="57.6" height="24"/></clipPath><text x="40" y="103" fill="#e6edf3"  xml:space="preserve" textLength="96.0" lengthAdjust="spacing" class="ol ol1">guitaripod</text><text x="136.0" y="103" fill="#9198a1"  xml:space="preserve" textLength="28.8" lengthAdjust="spacing" class="ol ol1"> · </text><text x="164.8" y="103" fill="#33ff66" filter="url(#glow)" xml:space="preserve" textLength="182.4" lengthAdjust="spacing" class="ol ol1">engineer who ships.</text><text x="40" y="130" fill="#33ff66" class="pr pr2">$</text><g class="cpos"><rect class="cursor" width="9.6" height="19" fill="#33ff66" filter="url(#glow)"/></g>
  <pattern id="scan" width="4" height="4" patternUnits="userSpaceOnUse"><rect width="4" height="1" fill="#000" opacity="0.16"/></pattern><rect x="10" y="46" width="880" height="135" fill="url(#scan)"/>
</svg>
