<svg xmlns="http://www.w3.org/2000/svg" width="900" height="409" viewBox="0 0 900 409" role="img" aria-label="guitaripod terminal session: engineer who ships. 9 apps on the App Store. midgarcorp.cc">
  <defs><filter id="glow" x="-50%" y="-50%" width="200%" height="200%"><feGaussianBlur stdDeviation="2.5" result="b"/><feMerge><feMergeNode in="b"/><feMergeNode in="SourceGraphic"/></feMerge></filter></defs>
  <style>text{font-family:ui-monospace,SFMono-Regular,Menlo,Consolas,monospace;font-size:16px}.cursor{animation:blink 1.1s steps(2,jump-none) infinite}@keyframes blink{50%{opacity:0}}.rc0{animation:fall 6.20s linear -10.15s infinite}
.rc1{animation:fall 10.04s linear -13.63s infinite}
.rc2{animation:fall 11.59s linear -9.24s infinite}
.rc3{animation:fall 9.68s linear -12.25s infinite}
.rc4{animation:fall 7.82s linear -9.95s infinite}
.rc5{animation:fall 8.14s linear -0.89s infinite}
.rc6{animation:fall 11.48s linear -2.20s infinite}
.rc7{animation:fall 11.24s linear -8.46s infinite}
.rc8{animation:fall 8.90s linear -0.04s infinite}
.rc9{animation:fall 9.08s linear -5.66s infinite}
.rc10{animation:fall 8.72s linear -9.89s infinite}
.rc11{animation:fall 11.11s linear -5.47s infinite}
.rc12{animation:fall 12.65s linear -9.69s infinite}
.rc13{animation:fall 9.80s linear -6.30s infinite}
.rc14{animation:fall 11.20s linear -7.87s infinite}
.rc15{animation:fall 11.05s linear -10.79s infinite}
@keyframes fall{from{transform:translateY(-308px)}to{transform:translateY(409px)}}.tw0{animation:t0 15.014285714285714s infinite}@keyframes t0{0%{width:0}5.328%{width:0;animation-timing-function:steps(6)}8.183%{width:57.6px}100%{width:57.6px}}.pr0{opacity:0;animation:o0 15.014285714285714s infinite}@keyframes o0{0%{opacity:0}5.228000000000001%{opacity:0}5.328%{opacity:1}100%{opacity:1}}.ol1{opacity:0;animation:o1 15.014285714285714s infinite}@keyframes o1{0%{opacity:0}10.414%{opacity:0}10.514%{opacity:1}100%{opacity:1}}.tw2{animation:t2 15.014285714285714s infinite}@keyframes t2{0%{width:0}14.177%{width:0;animation-timing-function:steps(13)}20.362%{width:124.8px}100%{width:124.8px}}.pr2{opacity:0;animation:o2 15.014285714285714s infinite}@keyframes o2{0%{opacity:0}14.077%{opacity:0}14.177%{opacity:1}100%{opacity:1}}.ol3{opacity:0;animation:o3 15.014285714285714s infinite}@keyframes o3{0%{opacity:0}22.593%{opacity:0}22.693%{opacity:1}100%{opacity:1}}.tw4{animation:t4 15.014285714285714s infinite}@keyframes t4{0%{width:0}26.356%{width:0;animation-timing-function:steps(5)}28.735%{width:48.0px}100%{width:48.0px}}.pr4{opacity:0;animation:o4 15.014285714285714s infinite}@keyframes o4{0%{opacity:0}26.256%{opacity:0}26.356%{opacity:1}100%{opacity:1}}.ol5{opacity:0;animation:o5 15.014285714285714s infinite}@keyframes o5{0%{opacity:0}30.965999999999998%{opacity:0}31.066%{opacity:1}100%{opacity:1}}.tw6{animation:t6 15.014285714285714s infinite}@keyframes t6{0%{width:0}34.729%{width:0;animation-timing-function:steps(11)}39.962%{width:105.6px}100%{width:105.6px}}.pr6{opacity:0;animation:o6 15.014285714285714s infinite}@keyframes o6{0%{opacity:0}34.629%{opacity:0}34.729%{opacity:1}100%{opacity:1}}.ol7{opacity:0;animation:o7 15.014285714285714s infinite}@keyframes o7{0%{opacity:0}42.193%{opacity:0}42.293%{opacity:1}100%{opacity:1}}.tw8{animation:t8 15.014285714285714s infinite}@keyframes t8{0%{width:0}45.956%{width:0;animation-timing-function:steps(17)}54.044%{width:163.2px}100%{width:163.2px}}.pr8{opacity:0;animation:o8 15.014285714285714s infinite}@keyframes o8{0%{opacity:0}45.856%{opacity:0}45.956%{opacity:1}100%{opacity:1}}.ol9{opacity:0;animation:o9 15.014285714285714s infinite}@keyframes o9{0%{opacity:0}56.275%{opacity:0}56.375%{opacity:1}100%{opacity:1}}.pr10{opacity:0;animation:o10 15.014285714285714s infinite}@keyframes o10{0%{opacity:0}59.937999999999995%{opacity:0}60.038%{opacity:1}100%{opacity:1}}.cpos{animation:cmove 15.014285714285714s infinite;animation-timing-function:linear}@keyframes cmove{0%{transform:translate(0,0);opacity:0}5.328%{transform:translate(59.2px,64px);opacity:1;animation-timing-function:steps(6);}8.183%{transform:translate(116.8px,64px);opacity:1}14.177%{transform:translate(59.2px,118px);opacity:1;animation-timing-function:steps(13);}20.362%{transform:translate(184.0px,118px);opacity:1}26.356%{transform:translate(59.2px,172px);opacity:1;animation-timing-function:steps(5);}28.735%{transform:translate(107.2px,172px);opacity:1}34.729%{transform:translate(59.2px,226px);opacity:1;animation-timing-function:steps(11);}39.962%{transform:translate(164.8px,226px);opacity:1}45.956%{transform:translate(59.2px,280px);opacity:1;animation-timing-function:steps(17);}54.044%{transform:translate(222.4px,280px);opacity:1}60.038%{transform:translate(59.2px,334px);opacity:1;}100%{transform:translate(59.2px,334px);opacity:1}}@media (prefers-reduced-motion:reduce){*{animation:none !important}.ol,.pr,.cpos{opacity:1 !important}}</style>
  <rect width="900" height="409" fill="#0d1117"/>
  <rect x="8" y="8" width="884" height="393" fill="#161b22" stroke="#2d333b" stroke-width="2"/>
  <rect x="8" y="8" width="884" height="36" fill="#1c2128" stroke="#2d333b" stroke-width="2"/>
  <circle cx="30" cy="26" r="6" fill="#ff7b72"/>
  <circle cx="52" cy="26" r="6" fill="#ffb000"/>
  <circle cx="74" cy="26" r="6" fill="#33ff66"/>
  <text x="450.0" y="31" text-anchor="middle" font-size="14" fill="#9198a1">guitaripod@midgar: ~</text>
  <clipPath id="rainclip"><rect x="10" y="46" width="880" height="353"/></clipPath><g clip-path="url(#rainclip)" opacity="0.13"><g transform="translate(33,0)"><g class="rc rc0"><text x="0" y="0" font-size="14" fill="#33ff66">ク</text><text x="0" y="22" font-size="14" fill="#33ff66">オ</text><text x="0" y="44" font-size="14" fill="#33ff66">8</text><text x="0" y="66" font-size="14" fill="#33ff66">ェ</text><text x="0" y="88" font-size="14" fill="#33ff66">6</text><text x="0" y="110" font-size="14" fill="#33ff66">8</text><text x="0" y="132" font-size="14" fill="#33ff66">+</text><text x="0" y="154" font-size="14" fill="#33ff66">2</text><text x="0" y="176" font-size="14" fill="#33ff66">ウ</text><text x="0" y="198" font-size="14" fill="#33ff66">3</text><text x="0" y="220" font-size="14" fill="#33ff66">セ</text><text x="0" y="242" font-size="14" fill="#33ff66">ィ</text><text x="0" y="264" font-size="14" fill="#33ff66">ア</text><text x="0" y="286" font-size="14" fill="#33ff66">ウ</text></g></g><g transform="translate(80,0)"><g class="rc rc1"><text x="0" y="0" font-size="14" fill="#33ff66">キ</text><text x="0" y="22" font-size="14" fill="#33ff66">7</text><text x="0" y="44" font-size="14" fill="#33ff66">5</text><text x="0" y="66" font-size="14" fill="#33ff66">7</text><text x="0" y="88" font-size="14" fill="#33ff66">2</text><text x="0" y="110" font-size="14" fill="#33ff66">セ</text><text x="0" y="132" font-size="14" fill="#33ff66">ク</text><text x="0" y="154" font-size="14" fill="#33ff66">ソ</text><text x="0" y="176" font-size="14" fill="#33ff66">3</text><text x="0" y="198" font-size="14" fill="#33ff66">ケ</text><text x="0" y="220" font-size="14" fill="#33ff66">$</text><text x="0" y="242" font-size="14" fill="#33ff66">*</text><text x="0" y="264" font-size="14" fill="#33ff66">ア</text><text x="0" y="286" font-size="14" fill="#33ff66">9</text></g></g><g transform="translate(148,0)"><g class="rc rc2"><text x="0" y="0" font-size="14" fill="#33ff66">オ</text><text x="0" y="22" font-size="14" fill="#33ff66">キ</text><text x="0" y="44" font-size="14" fill="#33ff66">9</text><text x="0" y="66" font-size="14" fill="#33ff66">サ</text><text x="0" y="88" font-size="14" fill="#33ff66">ェ</text><text x="0" y="110" font-size="14" fill="#33ff66">ウ</text><text x="0" y="132" font-size="14" fill="#33ff66">ス</text><text x="0" y="154" font-size="14" fill="#33ff66">ェ</text><text x="0" y="176" font-size="14" fill="#33ff66">シ</text><text x="0" y="198" font-size="14" fill="#33ff66">*</text><text x="0" y="220" font-size="14" fill="#33ff66">シ</text><text x="0" y="242" font-size="14" fill="#33ff66">4</text><text x="0" y="264" font-size="14" fill="#33ff66">ケ</text><text x="0" y="286" font-size="14" fill="#33ff66">$</text></g></g><g transform="translate(189,0)"><g class="rc rc3"><text x="0" y="0" font-size="14" fill="#33ff66">ス</text><text x="0" y="22" font-size="14" fill="#33ff66">ウ</text><text x="0" y="44" font-size="14" fill="#33ff66">2</text><text x="0" y="66" font-size="14" fill="#33ff66">コ</text><text x="0" y="88" font-size="14" fill="#33ff66">#</text><text x="0" y="110" font-size="14" fill="#33ff66">5</text><text x="0" y="132" font-size="14" fill="#33ff66">4</text><text x="0" y="154" font-size="14" fill="#33ff66">+</text><text x="0" y="176" font-size="14" fill="#33ff66">*</text><text x="0" y="198" font-size="14" fill="#33ff66">シ</text><text x="0" y="220" font-size="14" fill="#33ff66">3</text><text x="0" y="242" font-size="14" fill="#33ff66">キ</text><text x="0" y="264" font-size="14" fill="#33ff66">7</text><text x="0" y="286" font-size="14" fill="#33ff66">ウ</text></g></g><g transform="translate(245,0)"><g class="rc rc4"><text x="0" y="0" font-size="14" fill="#33ff66">ウ</text><text x="0" y="22" font-size="14" fill="#33ff66">*</text><text x="0" y="44" font-size="14" fill="#33ff66">ク</text><text x="0" y="66" font-size="14" fill="#33ff66">*</text><text x="0" y="88" font-size="14" fill="#33ff66">ェ</text><text x="0" y="110" font-size="14" fill="#33ff66">ス</text><text x="0" y="132" font-size="14" fill="#33ff66">ケ</text><text x="0" y="154" font-size="14" fill="#33ff66">ソ</text><text x="0" y="176" font-size="14" fill="#33ff66">5</text><text x="0" y="198" font-size="14" fill="#33ff66">#</text><text x="0" y="220" font-size="14" fill="#33ff66">シ</text><text x="0" y="242" font-size="14" fill="#33ff66">カ</text><text x="0" y="264" font-size="14" fill="#33ff66">シ</text><text x="0" y="286" font-size="14" fill="#33ff66">シ</text></g></g><g transform="translate(304,0)"><g class="rc rc5"><text x="0" y="0" font-size="14" fill="#33ff66">5</text><text x="0" y="22" font-size="14" fill="#33ff66">ウ</text><text x="0" y="44" font-size="14" fill="#33ff66">4</text><text x="0" y="66" font-size="14" fill="#33ff66">5</text><text x="0" y="88" font-size="14" fill="#33ff66">カ</text><text x="0" y="110" font-size="14" fill="#33ff66">2</text><text x="0" y="132" font-size="14" fill="#33ff66">8</text><text x="0" y="154" font-size="14" fill="#33ff66">ク</text><text x="0" y="176" font-size="14" fill="#33ff66">カ</text><text x="0" y="198" font-size="14" fill="#33ff66">ソ</text><text x="0" y="220" font-size="14" fill="#33ff66">ス</text><text x="0" y="242" font-size="14" fill="#33ff66">ケ</text><text x="0" y="264" font-size="14" fill="#33ff66">5</text><text x="0" y="286" font-size="14" fill="#33ff66">7</text></g></g><g transform="translate(367,0)"><g class="rc rc6"><text x="0" y="0" font-size="14" fill="#33ff66">9</text><text x="0" y="22" font-size="14" fill="#33ff66">ィ</text><text x="0" y="44" font-size="14" fill="#33ff66">ク</text><text x="0" y="66" font-size="14" fill="#33ff66">#</text><text x="0" y="88" font-size="14" fill="#33ff66">ィ</text><text x="0" y="110" font-size="14" fill="#33ff66">$</text><text x="0" y="132" font-size="14" fill="#33ff66">サ</text><text x="0" y="154" font-size="14" fill="#33ff66">ス</text><text x="0" y="176" font-size="14" fill="#33ff66">ケ</text><text x="0" y="198" font-size="14" fill="#33ff66">ウ</text><text x="0" y="220" font-size="14" fill="#33ff66">キ</text><text x="0" y="242" font-size="14" fill="#33ff66">3</text><text x="0" y="264" font-size="14" fill="#33ff66">+</text><text x="0" y="286" font-size="14" fill="#33ff66">7</text></g></g><g transform="translate(418,0)"><g class="rc rc7"><text x="0" y="0" font-size="14" fill="#33ff66">5</text><text x="0" y="22" font-size="14" fill="#33ff66">ソ</text><text x="0" y="44" font-size="14" fill="#33ff66">オ</text><text x="0" y="66" font-size="14" fill="#33ff66">ケ</text><text x="0" y="88" font-size="14" fill="#33ff66">オ</text><text x="0" y="110" font-size="14" fill="#33ff66">ク</text><text x="0" y="132" font-size="14" fill="#33ff66">8</text><text x="0" y="154" font-size="14" fill="#33ff66">2</text><text x="0" y="176" font-size="14" fill="#33ff66">2</text><text x="0" y="198" font-size="14" fill="#33ff66">ケ</text><text x="0" y="220" font-size="14" fill="#33ff66">8</text><text x="0" y="242" font-size="14" fill="#33ff66">3</text><text x="0" y="264" font-size="14" fill="#33ff66">セ</text><text x="0" y="286" font-size="14" fill="#33ff66">+</text></g></g><g transform="translate(480,0)"><g class="rc rc8"><text x="0" y="0" font-size="14" fill="#33ff66">オ</text><text x="0" y="22" font-size="14" fill="#33ff66">1</text><text x="0" y="44" font-size="14" fill="#33ff66">0</text><text x="0" y="66" font-size="14" fill="#33ff66">ウ</text><text x="0" y="88" font-size="14" fill="#33ff66">9</text><text x="0" y="110" font-size="14" fill="#33ff66">ィ</text><text x="0" y="132" font-size="14" fill="#33ff66">*</text><text x="0" y="154" font-size="14" fill="#33ff66">ェ</text><text x="0" y="176" font-size="14" fill="#33ff66">オ</text><text x="0" y="198" font-size="14" fill="#33ff66">5</text><text x="0" y="220" font-size="14" fill="#33ff66">カ</text><text x="0" y="242" font-size="14" fill="#33ff66">$</text><text x="0" y="264" font-size="14" fill="#33ff66">6</text><text x="0" y="286" font-size="14" fill="#33ff66">セ</text></g></g><g transform="translate(536,0)"><g class="rc rc9"><text x="0" y="0" font-size="14" fill="#33ff66">ソ</text><text x="0" y="22" font-size="14" fill="#33ff66">1</text><text x="0" y="44" font-size="14" fill="#33ff66">ケ</text><text x="0" y="66" font-size="14" fill="#33ff66">2</text><text x="0" y="88" font-size="14" fill="#33ff66">*</text><text x="0" y="110" font-size="14" fill="#33ff66">ア</text><text x="0" y="132" font-size="14" fill="#33ff66">6</text><text x="0" y="154" font-size="14" fill="#33ff66">8</text><text x="0" y="176" font-size="14" fill="#33ff66">ェ</text><text x="0" y="198" font-size="14" fill="#33ff66">6</text><text x="0" y="220" font-size="14" fill="#33ff66">+</text><text x="0" y="242" font-size="14" fill="#33ff66">2</text><text x="0" y="264" font-size="14" fill="#33ff66">9</text><text x="0" y="286" font-size="14" fill="#33ff66">ケ</text></g></g><g transform="translate(595,0)"><g class="rc rc10"><text x="0" y="0" font-size="14" fill="#33ff66">カ</text><text x="0" y="22" font-size="14" fill="#33ff66">ソ</text><text x="0" y="44" font-size="14" fill="#33ff66">ア</text><text x="0" y="66" font-size="14" fill="#33ff66">8</text><text x="0" y="88" font-size="14" fill="#33ff66">+</text><text x="0" y="110" font-size="14" fill="#33ff66">8</text><text x="0" y="132" font-size="14" fill="#33ff66">ケ</text><text x="0" y="154" font-size="14" fill="#33ff66">1</text><text x="0" y="176" font-size="14" fill="#33ff66">9</text><text x="0" y="198" font-size="14" fill="#33ff66">カ</text><text x="0" y="220" font-size="14" fill="#33ff66">1</text><text x="0" y="242" font-size="14" fill="#33ff66">ェ</text><text x="0" y="264" font-size="14" fill="#33ff66">*</text><text x="0" y="286" font-size="14" fill="#33ff66">5</text></g></g><g transform="translate(642,0)"><g class="rc rc11"><text x="0" y="0" font-size="14" fill="#33ff66">オ</text><text x="0" y="22" font-size="14" fill="#33ff66">シ</text><text x="0" y="44" font-size="14" fill="#33ff66">9</text><text x="0" y="66" font-size="14" fill="#33ff66">カ</text><text x="0" y="88" font-size="14" fill="#33ff66">2</text><text x="0" y="110" font-size="14" fill="#33ff66">9</text><text x="0" y="132" font-size="14" fill="#33ff66">1</text><text x="0" y="154" font-size="14" fill="#33ff66">ア</text><text x="0" y="176" font-size="14" fill="#33ff66">4</text><text x="0" y="198" font-size="14" fill="#33ff66">サ</text><text x="0" y="220" font-size="14" fill="#33ff66">0</text><text x="0" y="242" font-size="14" fill="#33ff66">ア</text><text x="0" y="264" font-size="14" fill="#33ff66">ェ</text><text x="0" y="286" font-size="14" fill="#33ff66">シ</text></g></g><g transform="translate(710,0)"><g class="rc rc12"><text x="0" y="0" font-size="14" fill="#33ff66">ィ</text><text x="0" y="22" font-size="14" fill="#33ff66">ク</text><text x="0" y="44" font-size="14" fill="#33ff66">+</text><text x="0" y="66" font-size="14" fill="#33ff66">3</text><text x="0" y="88" font-size="14" fill="#33ff66">ウ</text><text x="0" y="110" font-size="14" fill="#33ff66">ウ</text><text x="0" y="132" font-size="14" fill="#33ff66">8</text><text x="0" y="154" font-size="14" fill="#33ff66">0</text><text x="0" y="176" font-size="14" fill="#33ff66">#</text><text x="0" y="198" font-size="14" fill="#33ff66">ウ</text><text x="0" y="220" font-size="14" fill="#33ff66">9</text><text x="0" y="242" font-size="14" fill="#33ff66">2</text><text x="0" y="264" font-size="14" fill="#33ff66">9</text><text x="0" y="286" font-size="14" fill="#33ff66">オ</text></g></g><g transform="translate(751,0)"><g class="rc rc13"><text x="0" y="0" font-size="14" fill="#33ff66">ケ</text><text x="0" y="22" font-size="14" fill="#33ff66">1</text><text x="0" y="44" font-size="14" fill="#33ff66">*</text><text x="0" y="66" font-size="14" fill="#33ff66">4</text><text x="0" y="88" font-size="14" fill="#33ff66">セ</text><text x="0" y="110" font-size="14" fill="#33ff66">キ</text><text x="0" y="132" font-size="14" fill="#33ff66">2</text><text x="0" y="154" font-size="14" fill="#33ff66">9</text><text x="0" y="176" font-size="14" fill="#33ff66">8</text><text x="0" y="198" font-size="14" fill="#33ff66">7</text><text x="0" y="220" font-size="14" fill="#33ff66">キ</text><text x="0" y="242" font-size="14" fill="#33ff66">7</text><text x="0" y="264" font-size="14" fill="#33ff66">コ</text><text x="0" y="286" font-size="14" fill="#33ff66">ス</text></g></g><g transform="translate(824,0)"><g class="rc rc14"><text x="0" y="0" font-size="14" fill="#33ff66">1</text><text x="0" y="22" font-size="14" fill="#33ff66">ソ</text><text x="0" y="44" font-size="14" fill="#33ff66">ェ</text><text x="0" y="66" font-size="14" fill="#33ff66">ク</text><text x="0" y="88" font-size="14" fill="#33ff66">ク</text><text x="0" y="110" font-size="14" fill="#33ff66">ウ</text><text x="0" y="132" font-size="14" fill="#33ff66">サ</text><text x="0" y="154" font-size="14" fill="#33ff66">ア</text><text x="0" y="176" font-size="14" fill="#33ff66">3</text><text x="0" y="198" font-size="14" fill="#33ff66">2</text><text x="0" y="220" font-size="14" fill="#33ff66">ク</text><text x="0" y="242" font-size="14" fill="#33ff66">3</text><text x="0" y="264" font-size="14" fill="#33ff66">ク</text><text x="0" y="286" font-size="14" fill="#33ff66">ア</text></g></g><g transform="translate(861,0)"><g class="rc rc15"><text x="0" y="0" font-size="14" fill="#33ff66">+</text><text x="0" y="22" font-size="14" fill="#33ff66">ィ</text><text x="0" y="44" font-size="14" fill="#33ff66">*</text><text x="0" y="66" font-size="14" fill="#33ff66">サ</text><text x="0" y="88" font-size="14" fill="#33ff66">ウ</text><text x="0" y="110" font-size="14" fill="#33ff66">1</text><text x="0" y="132" font-size="14" fill="#33ff66">ク</text><text x="0" y="154" font-size="14" fill="#33ff66">ケ</text><text x="0" y="176" font-size="14" fill="#33ff66">6</text><text x="0" y="198" font-size="14" fill="#33ff66">0</text><text x="0" y="220" font-size="14" fill="#33ff66">キ</text><text x="0" y="242" font-size="14" fill="#33ff66">2</text><text x="0" y="264" font-size="14" fill="#33ff66">オ</text><text x="0" y="286" font-size="14" fill="#33ff66">8</text></g></g></g>
  <text x="40" y="78" fill="#33ff66" class="pr pr0">$</text><g clip-path="url(#tc0)"><text x="59.2" y="78" fill="#e6edf3" textLength="57.6" lengthAdjust="spacing">whoami</text></g><clipPath id="tc0"><rect class="tw0" x="59.2" y="60" width="57.6" height="24"/></clipPath><text x="40" y="105" fill="#e6edf3"  class="ol ol1">guitaripod</text><text x="40" y="132" fill="#33ff66" class="pr pr2">$</text><g clip-path="url(#tc2)"><text x="59.2" y="132" fill="#e6edf3" textLength="124.8" lengthAdjust="spacing">cat /etc/motd</text></g><clipPath id="tc2"><rect class="tw2" x="59.2" y="114" width="124.8" height="24"/></clipPath><text x="40" y="159" fill="#33ff66" filter="url(#glow)" class="ol ol3">engineer who ships.</text><text x="40" y="186" fill="#33ff66" class="pr pr4">$</text><g clip-path="url(#tc4)"><text x="59.2" y="186" fill="#e6edf3" textLength="48.0" lengthAdjust="spacing">ls ~/</text></g><clipPath id="tc4"><rect class="tw4" x="59.2" y="168" width="48.0" height="24"/></clipPath><text x="40" y="213" fill="#e6edf3"  class="ol ol5">apps/  clis/  sdks/  agents/  blog/</text><text x="40" y="240" fill="#33ff66" class="pr pr6">$</text><g clip-path="url(#tc6)"><text x="59.2" y="240" fill="#e6edf3" textLength="105.6" lengthAdjust="spacing">apps --live</text></g><clipPath id="tc6"><rect class="tw6" x="59.2" y="222" width="105.6" height="24"/></clipPath><text x="40" y="267" fill="#ffb000"  class="ol ol7">9 on the App Store</text><text x="40" y="294" fill="#33ff66" class="pr pr8">$</text><g clip-path="url(#tc8)"><text x="59.2" y="294" fill="#e6edf3" textLength="163.2" lengthAdjust="spacing">./midgarcorp.cc &amp;</text></g><clipPath id="tc8"><rect class="tw8" x="59.2" y="276" width="163.2" height="24"/></clipPath><text x="40" y="321" fill="#9198a1"  class="ol ol9">[1] running</text><text x="40" y="348" fill="#33ff66" class="pr pr10">$</text><g class="cpos"><rect class="cursor" width="9.6" height="19" fill="#33ff66" filter="url(#glow)"/></g>
  <pattern id="scan" width="4" height="4" patternUnits="userSpaceOnUse"><rect width="4" height="1" fill="#000" opacity="0.16"/></pattern><rect x="10" y="46" width="880" height="353" fill="url(#scan)"/>
</svg>
